HIERARCHY
ROOT Hips
{
  OFFSET 28.529 81.0875 -151.188
  CHANNELS 6 Xposition Yposition Zposition Zrotation Xrotation Yrotation
  JOINT RightUpLeg
  {
    OFFSET -8.9458 -8.66707 0.101652
    CHANNELS 3 Zrotation Xrotation Yrotation
    JOINT RightLeg
    {
      OFFSET 0 -44.4227 1.3727
      CHANNELS 3 Zrotation Xrotation Yrotation
      JOINT RightFoot
      {
        OFFSET 0.253549 -42.0924 -1.46059
        CHANNELS 3 Zrotation Xrotation Yrotation
        JOINT RightToes
        {
          OFFSET 0.04 -4.41509 8.4991
          CHANNELS 3 Zrotation Xrotation Yrotation
          End Site
          {
            OFFSET -0.08 -0.137448 9.77979
          }
        }
      }
    }
  }
  JOINT Spine
  {
    OFFSET 0 11.8905 0
    CHANNELS 3 Zrotation Xrotation Yrotation
    JOINT Spine1
    {
      OFFSET 0 25.6574 0.127663
      CHANNELS 3 Zrotation Xrotation Yrotation
      JOINT HEad
      {
        OFFSET 0 8.73416 0.011341
        CHANNELS 3 Zrotation Xrotation Yrotation
        End Site
        {
          OFFSET -0.29 12.7742 2.51395
        }
      }
      JOINT LeftShoulder1
      {
        OFFSET 8.99 -0.362252 -0.22
        CHANNELS 3 Zrotation Xrotation Yrotation
        JOINT LeftArm
        {
          OFFSET 10.2827 -0.00338 0.322123
          CHANNELS 3 Zrotation Xrotation Yrotation
          JOINT LeftForeArm
          {
            OFFSET 32.7669 0.099144 -1.42434
            CHANNELS 3 Zrotation Xrotation Yrotation
            JOINT LeftHand
            {
              OFFSET 27.5643 0.085362 1.02216
              CHANNELS 3 Zrotation Xrotation Yrotation
              End Site
              {
                OFFSET 16.7443 -0.6 1.50291
              }
            }
          }
        }
      }
      JOINT RightShoulder
      {
        OFFSET -8.99 -0.362252 -0.22
        CHANNELS 3 Zrotation Xrotation Yrotation
        JOINT RightArm
        {
          OFFSET -10.2827 -0.00338 0.322123
          CHANNELS 3 Zrotation Xrotation Yrotation
          JOINT RightForeArm
          {
            OFFSET -32.8971 0.099144 -1.42434
            CHANNELS 3 Zrotation Xrotation Yrotation
            JOINT RightHand
            {
              OFFSET -27.4921 0.085362 1.02216
              CHANNELS 3 Zrotation Xrotation Yrotation
              End Site
              {
                OFFSET -16.6312 -0.6 1.50291
              }
            }
          }
        }
      }
    }
  }
  JOINT LeftUpLeg
  {
    OFFSET 8.9458 -8.66707 0.101652
    CHANNELS 3 Zrotation Xrotation Yrotation
    JOINT LeftLeg
    {
      OFFSET 0 -44.4227 1.3727
      CHANNELS 3 Zrotation Xrotation Yrotation
      JOINT LeftFoot
      {
        OFFSET -0.253549 -42.0924 -1.46059
        CHANNELS 3 Zrotation Xrotation Yrotation
        JOINT LeftToes
        {
          OFFSET -0.04 -4.41509 8.4991
          CHANNELS 3 Zrotation Xrotation Yrotation
          End Site
          {
            OFFSET 0.08 -0.047448 9.77979
          }
        }
      }
    }
  }
}
MOTION
Frames:	10
Frame Time:	0.0166667
43.708 79.8234 -120.534 -2.35552 2.2573 -21.392 -20.2607 -7.20907 3.92758 23.7375 56.5223 -21.1151 42.4523 1.34266 0.150859 0.0462048 0.000533403 0.662642 -5.68418 10.4093 8.41319 -0.00903984 5.16162e-009 2.1921e-007 -5.59881 10.0271 18.0454 -1.59028e-015 0 -1.59028e-015 -113.825 -19.832 -92.741 -21.0873 59.5231 -83.4176 36.5961 11.5832 -22.0178 33.33 11.4584 10.4316 79.1774 -15.6123 76.852 30.5017 62.6555 87.1001 -34.9554 19.1642 -1.61363 23.1 -52.5658 15.7568 -8.28619 76.5838 16.3312 8.14294 -0.2276 0.29408 2.44436e-008 1.56001e-007 -4.85536e-009 
43.4731 78.663 -121.19 -2.329 1.83156 -21.3405 -20.7688 -8.25784 3.58795 25.3634 59.5306 -22.2689 45.4983 1.67452 0.00956275 0.0462048 0.000533403 0.662642 -5.95894 11.082 8.67771 -0.00903984 5.16162e-009 2.1921e-007 -5.45209 9.9223 17.6416 -4.41391e-032 -1.59028e-015 -1.59028e-015 -114.09 -19.2165 -92.5484 -20.5937 59.8203 -84.2053 36.6645 11.6738 -21.9041 33.5817 11.0583 10.0418 78.6504 -15.6354 76.2767 29.5569 62.7933 88.2586 -35.003 19.2183 -1.66217 23.7889 -53.754 16.1357 -8.9171 78.34 17.0105 8.49795 0.412186 0.131914 2.44436e-008 1.56001e-007 -4.85536e-009 
43.0742 77.5556 -122.594 -2.27641 1.38893 -21.2533 -21.0609 -10.0671 2.94574 27.8483 63.2433 -24.4773 48.3941 2.08648 -0.266219 0.0462048 0.000533403 0.662642 -6.25536 11.7325 8.91077 -0.00903984 5.16162e-009 2.1921e-007 -5.33414 9.87914 17.241 2.38542e-015 1.59028e-015 -1.59028e-015 -114.312 -18.5797 -92.3846 -20.1446 60.0599 -84.8882 36.8037 11.7061 -21.864 33.7832 10.6809 9.68319 78.1352 -15.6385 75.7656 28.5887 62.8377 89.4029 -35.0182 19.2448 -1.83223 25.0855 -55.2116 16.9712 -9.1479 79.5736 17.1506 8.90565 1.97599 -0.319869 2.44436e-008 1.56001e-007 -4.85536e-009 
42.5337 76.5264 -124.632 -2.20016 0.945945 -21.1367 -21.12 -12.478 2.06315 31.4059 67.3291 -28.0601 51.1919 2.58352 -0.730793 0.0462048 0.000533403 0.662642 -6.56496 12.3492 9.11411 -0.00903984 5.16162e-009 2.1921e-007 -5.24529 9.88792 16.8482 1.98785e-015 3.18055e-015 -0 -114.492 -17.944 -92.2601 -19.7651 60.2521 -85.4389 36.7851 11.817 -21.7319 33.9355 10.3282 9.36069 77.6393 -15.6123 75.3282 27.654 62.7948 90.4697 -34.9332 19.2646 -1.99626 26.9409 -56.8106 18.2568 -8.79044 80.1984 16.5575 9.41056 4.36121 -1.03365 2.44436e-008 1.56001e-007 -4.85536e-009 
41.8515 75.6002 -127.179 -2.09756 0.518705 -20.9934 -20.925 -15.3281 1.0063 36.4191 71.4402 -33.5026 53.9288 3.1665 -1.43817 0.0462048 0.000533403 0.662642 -6.88398 12.9184 9.29046 -0.00903984 5.16162e-009 2.1921e-007 -5.18787 9.93889 16.4634 -1.59028e-015 1.59028e-015 -0 -114.63 -17.3307 -92.1627 -19.4489 60.4209 -85.879 36.7694 11.9176 -21.5852 34.0518 10.0056 9.10635 77.1236 -15.5761 74.9427 26.7787 62.6547 91.4173 -34.7537 19.2539 -2.29932 29.2822 -58.3858 19.9684 -7.83194 80.1007 15.2066 10.0525 7.45629 -1.98367 2.44436e-008 1.56001e-007 -4.85536e-009 
41.0789 74.8032 -130.131 -1.97101 0.121085 -20.8283 -20.4687 -18.4743 -0.16082 43.5043 75.2461 -41.4854 56.6261 3.83062 -2.42182 0.0462048 0.000533403 0.662642 -7.20324 13.4309 9.44249 -0.00903984 5.16162e-009 2.1921e-007 -5.16121 10.0226 16.0893 2.64834e-031 4.77083e-015 -3.18055e-015 -114.73 -16.7511 -92.0971 -19.1946 60.5548 -86.2125 36.7222 12.0474 -21.4277 34.1301 9.70588 8.90502 76.6095 -15.5149 74.6161 26.0115 62.4327 92.197 -34.6471 19.2399 -2.43771 31.9704 -59.7705 22.0178 -6.58508 79.1744 13.4174 10.8699 11.1341 -3.14851 2.44436e-008 1.56001e-007 -4.85536e-009 
40.2381 74.1514 -133.375 -1.82185 -0.233815 -20.6449 -19.7571 -21.7842 -1.37555 53.4163 78.4489 -52.7952 59.2936 4.57267 -3.69181 0.0462048 0.000533403 0.662642 -7.51443 13.8783 9.57241 -0.00903984 5.16162e-009 2.1921e-007 -5.16436 10.1289 15.7276 -2.38542e-015 3.18055e-015 -0 -114.8 -16.2139 -92.0683 -18.9976 60.6511 -86.4441 36.6586 12.1735 -21.285 34.1666 9.42851 8.75571 76.1188 -15.4323 74.3556 25.3741 62.1492 92.7853 -34.5035 19.2148 -2.62652 34.8002 -60.8158 24.2496 -5.5091 77.3457 11.6598 11.8976 15.2533 -4.51295 2.44436e-008 1.56001e-007 -4.85536e-009 
39.3391 73.5381 -136.671 -1.64722 -0.530075 -20.4367 -18.8649 -25.0984 -2.53095 67.623 80.8873 -68.7682 61.9862 5.21696 -5.05997 0.0462048 0.000533403 0.662642 -7.81224 14.2507 9.67941 -0.00903984 5.16162e-009 2.1921e-007 -5.19667 10.2443 15.3786 -1.59028e-015 3.18055e-015 -0 -114.84 -15.7297 -92.0858 -18.8455 60.7 -86.5672 36.5361 12.3595 -21.1749 34.1112 9.18105 8.70419 75.706 -15.3614 74.1745 24.8508 61.8157 93.1964 -34.3539 19.1816 -2.71897 38.9546 -62.3565 27.6394 -9.60841 78.6971 15.0008 13.3786 19.9615 -6.29963 2.44436e-008 1.56001e-007 -4.85536e-009 
38.4159 73.2976 -140.187 -1.4532 -0.760685 -20.2047 -17.6957 -28.3265 -3.67483 81.9504 82.2586 -85.4806 64.5265 6.13527 -6.86896 0.0462048 0.000533403 0.662642 -8.08911 14.5485 9.76347 -0.00903984 5.16162e-009 2.1921e-007 -5.2561 10.3593 15.0467 1.59028e-015 0 -1.59028e-015 -114.855 -15.2965 -92.1549 -18.7687 60.6959 -86.5652 36.4567 12.3994 -21.1139 33.982 8.95077 8.68784 75.3726 -15.2516 74.0725 24.4035 61.4624 93.4846 -34.2152 19.2137 -2.85236 41.0089 -62.1472 29.3785 -8.60366 73.5897 13.224 14.9005 24.3649 -8.03076 2.44436e-008 1.56001e-007 -4.85536e-009 
37.4904 73.1979 -143.656 -1.24314 -0.921925 -19.9505 -16.3951 -31.3225 -4.68862 94.473 82.9622 -100.731 66.9873 7.06731 -8.79952 0.0462048 0.000533403 0.662642 -8.34239 14.7729 9.82546 -0.00903984 5.16162e-009 2.1921e-007 -5.34011 10.4655 14.7332 3.97569e-016 0 -1.59028e-015 -114.847 -14.9147 -92.2731 -18.7927 60.6386 -86.4273 36.3308 12.4635 -21.0697 33.7858 8.73925 8.69837 75.1235 -15.1074 74.0407 23.9811 61.1061 93.714 -34.0607 19.2592 -2.98524 42.3332 -61.423 30.5381 -8.27022 67.9404 12.0308 16.7069 28.8459 -9.94726 2.44436e-008 1.56001e-007 -4.85536e-009 
